<svg width="22" height="20" viewBox="0 0 22 20" fill="none" xmlns="http://www.w3.org/2000/svg">
<path opacity="0.5" d="M11 3.501L13 5.501" stroke="#699BF7" stroke-width="1.5" stroke-linecap="round"/>
<path d="M11 3.5L10.46 4.02C10.53 4.09259 10.6138 4.15032 10.7066 4.18976C10.7994 4.22919 10.8992 4.24952 11 4.24952C11.1008 4.24952 11.2006 4.22919 11.2934 4.18976C11.3862 4.15032 11.47 4.09259 11.54 4.02L11 3.5ZM8.426 16.322C6.91 15.127 5.253 13.96 3.938 12.48C2.65 11.028 1.75 9.335 1.75 7.137H0.25C0.25 9.803 1.36 11.837 2.817 13.476C4.247 15.086 6.071 16.376 7.497 17.5L8.426 16.322ZM1.75 7.137C1.75 4.987 2.965 3.183 4.624 2.424C6.236 1.687 8.402 1.882 10.46 4.02L11.54 2.981C9.1 0.444 6.264 0.025 4 1.06C1.786 2.073 0.25 4.425 0.25 7.137H1.75ZM7.497 17.5C8.01 17.904 8.56 18.334 9.117 18.66C9.674 18.986 10.31 19.25 11 19.25V17.75C10.69 17.75 10.326 17.63 9.874 17.365C9.421 17.101 8.952 16.737 8.426 16.322L7.497 17.5ZM14.503 17.5C15.929 16.375 17.753 15.087 19.183 13.476C20.64 11.836 21.75 9.803 21.75 7.137H20.25C20.25 9.335 19.35 11.028 18.062 12.48C16.747 13.96 15.09 15.127 13.574 16.322L14.503 17.5ZM21.75 7.137C21.75 4.425 20.215 2.073 18 1.06C15.736 0.025 12.902 0.444 10.46 2.98L11.54 4.02C13.598 1.883 15.764 1.687 17.376 2.424C19.035 3.183 20.25 4.986 20.25 7.137H21.75ZM13.574 16.322C13.048 16.737 12.579 17.101 12.126 17.365C11.673 17.629 11.31 17.75 11 17.75V19.25C11.69 19.25 12.326 18.985 12.883 18.66C13.441 18.334 13.99 17.904 14.503 17.5L13.574 16.322Z" fill="#013182"/>
</svg>
